HIERARCHY
ROOT Hips
{
	OFFSET 49.686199 -14.796116 100.574997
	CHANNELS 6 Xposition Yposition Zposition Xrotation Yrotation Zrotation
	JOINT spine
	{
		OFFSET 0.000000 -0.507026 8.817047
		CHANNELS 3 Xrotation Yrotation Zrotation
		JOINT spine1
		{
			OFFSET 0.000000 -0.000002 10.776596
			CHANNELS 3 Xrotation Yrotation Zrotation
			JOINT spine2
			{
				OFFSET 0.000000 -0.000001 10.325897
				CHANNELS 3 Xrotation Yrotation Zrotation
				JOINT Neck
				{
					OFFSET 0.000000 -1.263954 26.511002
					CHANNELS 3 Xrotation Yrotation Zrotation
					JOINT Head
					{
						OFFSET 0.000000 -0.000002 8.009659
						CHANNELS 3 Xrotation Yrotation Zrotation
						End Site
						{
							OFFSET 0.000000 6.393856 19.387894
						}
					}
				}
				JOINT RightShoulder
				{
					OFFSET -4.347950 0.605420 11.151199
					CHANNELS 3 Xrotation Yrotation Zrotation
					JOINT RightArm
					{
						OFFSET 0.000000 -0.000003 14.625793
						CHANNELS 3 Xrotation Yrotation Zrotation
						JOINT RightArmRoll
						{
							OFFSET 0.000000 -0.000001 7.383408
							CHANNELS 3 Xrotation Yrotation Zrotation
							JOINT RightForeArm
							{
								OFFSET 0.000000 -0.000004 21.505203
								CHANNELS 3 Xrotation Yrotation Zrotation
								JOINT RightForeArmRoll
								{
									OFFSET 0.000000 -0.000001 8.285324
									CHANNELS 3 Xrotation Yrotation Zrotation
									JOINT RightHand
									{
										OFFSET 0.000000 -0.000003 16.626801
										CHANNELS 3 Xrotation Yrotation Zrotation
										End Site
										{
											OFFSET 0.000000 0.000000 0.100006
										}
									}
								}
							}
						}
					}
				}
				JOINT LeftShoulder
				{
					OFFSET 4.347950 0.605420 11.151199
					CHANNELS 3 Xrotation Yrotation Zrotation
					JOINT LeftArm
					{
						OFFSET 0.000000 -0.000003 14.625793
						CHANNELS 3 Xrotation Yrotation Zrotation
						JOINT LeftArmRoll
						{
							OFFSET 0.000000 -0.000001 7.383408
							CHANNELS 3 Xrotation Yrotation Zrotation
							JOINT LeftForeArm
							{
								OFFSET 0.000000 -0.000004 21.505203
								CHANNELS 3 Xrotation Yrotation Zrotation
								JOINT LeftForeArmRoll
								{
									OFFSET 0.000000 -0.000001 8.285324
									CHANNELS 3 Xrotation Yrotation Zrotation
									JOINT LeftHand
									{
										OFFSET 0.000000 -0.000003 16.626801
										CHANNELS 3 Xrotation Yrotation Zrotation
										End Site
										{
											OFFSET 0.000000 0.000000 0.100006
										}
									}
								}
							}
						}
					}
				}
			}
		}
	}
	JOINT RightUpLeg
	{
		OFFSET -7.815102 1.202170 -1.433090
		CHANNELS 3 Xrotation Yrotation Zrotation
		JOINT RightUpLegRoll
		{
			OFFSET 0.000000 -0.000003 19.495895
			CHANNELS 3 Xrotation Yrotation Zrotation
			JOINT RightLeg
			{
				OFFSET 0.000000 0.000004 -24.142700
				CHANNELS 3 Xrotation Yrotation Zrotation
				JOINT RightLegRoll
				{
					OFFSET 0.000000 -0.000004 24.221703
					CHANNELS 3 Xrotation Yrotation Zrotation
					JOINT RightFoot
					{
						OFFSET 0.000000 -0.000004 20.160500
						CHANNELS 3 Xrotation Yrotation Zrotation
						JOINT RightToeBase
						{
							OFFSET 0.000000 -0.000003 16.853195
							CHANNELS 3 Xrotation Yrotation Zrotation
							End Site
							{
								OFFSET 0.007145 0.940779 8.161865
							}
						}
					}
				}
			}
		}
	}
	JOINT LeftUpLeg
	{
		OFFSET 7.815102 1.202170 -1.433090
		CHANNELS 3 Xrotation Yrotation Zrotation
		JOINT LeftUpLegRoll
		{
			OFFSET 0.000000 -0.000003 19.496002
			CHANNELS 3 Xrotation Yrotation Zrotation
			JOINT LeftLeg
			{
				OFFSET 0.000000 -0.000004 24.142593
				CHANNELS 3 Xrotation Yrotation Zrotation
				JOINT LeftLegRoll
				{
					OFFSET 0.000000 -0.000005 24.445602
					CHANNELS 3 Xrotation Yrotation Zrotation
					JOINT LeftFoot
					{
						OFFSET 0.000000 -0.000003 19.936600
						CHANNELS 3 Xrotation Yrotation Zrotation
						JOINT LeftToeBase
						{
							OFFSET 0.000000 -0.000003 16.853195
							CHANNELS 3 Xrotation Yrotation Zrotation
							End Site
							{
								OFFSET -0.032013 0.940780 8.161865
							}
						}
					}
				}
			}
		}
	}
}
MOTION
Frames: 11
Frame Time: 0.041667
49.969109 -13.795421 100.527992 0.720564 0.319976 3.109476 -3.028937 0.140520 -0.096396 -2.054865 0.277792 -0.188427 -0.409783 0.275706 -0.191771 17.459032 -1.542793 0.882061 2.942741 9.977362 -0.487945 -12.770531 -20.004434 -12.938453 -144.564505 -166.004237 -96.378798 0.000002 -0.000003 0.000001 67.193086 0.541020 3.101893 0.000002 0.000000 -3.000000 -5.000178 -7.999013 0.000154 -13.415134 22.266405 14.076651 -138.635724 171.692432 93.846963 0.000001 -0.000038 0.000007 59.302960 -2.733622 -0.521126 -0.000002 -0.000008 3.000000 -5.000230 7.998999 -0.000112 -1.735561 -179.983011 -1.844335 -179.999991 0.000005 -1.004005 174.037031 -0.757875 -0.437174 -0.000004 0.000005 0.033359 68.411523 6.881508 2.178222 25.853374 -7.355614 0.558553 -3.270933 177.537011 2.901568 -0.000004 -0.000004 -1.026650 -8.526727 2.088636 0.494651 -0.000002 0.000001 -0.135366 70.097344 -6.859613 -2.139126 25.459380 7.355619 -0.003732 
49.968204 -13.818320 100.529984 0.716800 0.320378 3.088502 -3.030378 0.141340 -0.098847 -2.057924 0.278869 -0.193109 -0.412838 0.276688 -0.196461 17.431635 -1.520402 0.875481 3.022240 9.959817 -0.498290 -12.758323 -19.962449 -12.916607 -144.500834 -166.175962 -96.348540 -0.000003 -0.000004 0.000000 67.540776 0.527170 3.153236 -0.000002 0.000001 -2.999999 -5.000178 -7.999012 0.000152 -13.393007 22.258646 14.042974 -138.678809 171.826714 93.762037 0.000000 -0.000039 0.000007 59.588927 -2.719009 -0.558581 -0.000000 -0.000013 3.000001 -5.000230 7.999001 -0.000113 -1.732142 -179.985020 -1.844313 -179.999991 0.000005 -1.004005 174.035324 -0.758865 -0.436290 -0.000004 0.000005 0.033334 68.413019 6.881580 2.178142 25.856098 -7.355609 0.556500 -3.262051 177.534006 2.898406 -0.000004 -0.000004 -1.026810 -8.529772 2.089481 0.494518 -0.000002 0.000001 -0.135408 70.098723 -6.859614 -2.139140 25.459383 7.355617 -0.003742 
49.970505 -13.819920 100.529999 0.713089 0.320616 3.067369 -3.031791 0.142126 -0.101248 -2.060925 0.279934 -0.197667 -0.415839 0.277663 -0.201027 17.407024 -1.496120 0.868605 3.096039 9.939692 -0.508048 -12.746185 -19.917311 -12.894537 -144.437027 -166.343288 -96.317217 0.000000 -0.000005 0.000000 67.871706 0.515219 3.203608 -0.000002 0.000002 -3.000001 -5.000184 -7.999015 0.000152 -13.370497 22.252577 14.008997 -138.723738 171.958741 93.680184 -0.000000 -0.000040 0.000006 59.873746 -2.703781 -0.596246 -0.000000 -0.000011 3.000000 -5.000232 7.999000 -0.000114 -1.728794 -179.987000 -1.844072 -179.999991 0.000005 -1.004005 174.033562 -0.759868 -0.436419 -0.000003 0.000005 0.033309 68.414603 6.881587 2.178245 25.858726 -7.355622 0.554418 -3.252869 177.531971 2.895256 -0.000005 -0.000004 -1.026960 -8.532381 2.090436 0.494389 -0.000002 0.000001 -0.135450 70.100000 -6.859611 -2.139060 25.459378 7.355620 -0.003752 
49.966805 -13.820321 100.527985 0.709457 0.320664 3.046030 -3.033163 0.142868 -0.103574 -2.063856 0.280991 -0.202065 -0.418763 0.278634 -0.205432 17.386508 -1.470147 0.861650 3.161892 9.916951 -0.516820 -12.733884 -19.868655 -12.872086 -144.373943 -166.505245 -96.285846 -0.000002 -0.000005 -0.000001 68.183975 0.505220 3.252924 -0.000002 0.000001 -2.999999 -5.000186 -7.999016 0.000153 -13.348146 22.248059 13.975212 -138.770620 172.088652 93.601329 0.000001 -0.000038 0.000007 60.157813 -2.687969 -0.634025 -0.000003 -0.000010 3.000000 -5.000233 7.999002 -0.000113 -1.725515 -179.987998 -1.843582 -179.999991 0.000005 -1.004005 174.031868 -0.760857 -0.436545 -0.000004 0.000005 0.033284 68.416181 6.881593 2.178348 25.861350 -7.355623 0.552333 -3.243327 177.529963 2.892147 -0.000005 -0.000004 -1.027110 -8.534398 2.091532 0.494256 -0.000002 0.000001 -0.135491 70.101155 -6.859572 -2.139084 25.459378 7.355619 -0.003762 
49.966602 -13.827722 100.530998 0.705953 0.320495 3.024472 -3.034480 0.143559 -0.105804 -2.066675 0.282042 -0.206264 -0.421587 0.279605 -0.209639 17.371483 -1.442666 0.854823 3.217553 9.891552 -0.524208 -12.721593 -19.815967 -12.849241 -144.312021 -166.661001 -96.254926 -0.000003 -0.000006 -0.000001 68.475980 0.497232 3.301023 -0.000001 0.000001 -3.000000 -5.000179 -7.999014 0.000152 -13.326043 22.244990 13.941938 -138.819292 172.216513 93.525138 0.000001 -0.000038 0.000007 60.441437 -2.671630 -0.671811 -0.000004 -0.000012 3.000002 -5.000233 7.999000 -0.000112 -1.722313 -179.988995 -1.842780 -179.999991 0.000005 -1.004006 174.030242 -0.762839 -0.436774 -0.000003 0.000005 0.033259 68.417773 6.881638 2.178259 25.863975 -7.355613 0.550272 -3.233369 177.528938 2.889034 -0.000005 -0.000004 -1.027270 -8.535706 2.092841 0.494127 -0.000002 0.000001 -0.135532 70.101995 -6.859560 -2.139128 25.459380 7.355619 -0.003772 
49.964806 -13.841716 100.530998 0.702601 0.320080 3.002664 -3.035760 0.144194 -0.107918 -2.069386 0.283092 -0.210228 -0.424290 0.280583 -0.213610 17.363355 -1.413856 0.848329 3.260788 9.863431 -0.529831 -12.709267 -19.758672 -12.825878 -144.251888 -166.809352 -96.225023 -0.000002 -0.000006 -0.000001 68.745717 0.491317 3.347809 -0.000000 0.000002 -2.999999 -5.000183 -7.999011 0.000152 -13.304382 22.243059 13.909497 -138.869767 172.342393 93.451584 0.000002 -0.000040 0.000006 60.724917 -2.654808 -0.709500 -0.000001 -0.000013 3.000002 -5.000233 7.999002 -0.000112 -1.719203 -179.988995 -1.841610 -179.999991 0.000005 -1.004006 174.028808 -0.763828 -0.435899 -0.000003 0.000005 0.033235 68.419357 6.881643 2.178360 25.866398 -7.355619 0.548237 -3.222923 177.526916 2.886026 -0.000005 -0.000004 -1.027420 -8.536133 2.094400 0.493999 -0.000002 0.000001 -0.135572 70.102630 -6.859541 -2.139186 25.459375 7.355620 -0.003783 
49.963203 -13.847221 100.528992 0.699443 0.319394 2.980571 -3.036981 0.144765 -0.109891 -2.071946 0.284143 -0.213917 -0.426850 0.281569 -0.217308 17.363529 -1.383922 0.842379 3.289339 9.832564 -0.533301 -12.696775 -19.696379 -12.801898 -144.194255 -166.949399 -96.196985 0.000001 -0.000004 -0.000001 68.991700 0.487506 3.393171 -0.000000 0.000002 -3.000001 -5.000187 -7.999010 0.000152 -13.283693 22.242226 13.878411 -138.921963 172.466279 93.380208 -0.000002 -0.000042 0.000006 61.008855 -2.637513 -0.747003 -0.000003 -0.000011 3.000001 -5.000233 7.999004 -0.000113 -1.716204 -179.989008 -1.840009 -179.999991 0.000005 -1.004005 174.027524 -0.765824 -0.436125 -0.000004 0.000005 0.033211 68.420730 6.881671 2.178380 25.868727 -7.355619 0.546273 -3.211944 177.526875 2.882933 -0.000005 -0.000004 -1.027580 -8.535545 2.096263 0.493872 -0.000002 0.000001 -0.135612 70.102917 -6.859484 -2.139258 25.459380 7.355621 -0.003792 
49.956703 -13.853019 100.528992 0.696509 0.318409 2.958169 -3.038129 0.145263 -0.111702 -2.074336 0.285197 -0.217296 -0.429242 0.282570 -0.220696 17.373100 -1.353050 0.837159 3.300979 9.798892 -0.534253 -12.684064 -19.628410 -12.777140 -144.139722 -167.080169 -96.171365 -0.000002 -0.000005 0.000001 69.211932 0.485851 3.436966 -0.000000 0.000004 -3.000000 -5.000179 -7.999012 0.000151 -13.263964 22.242380 13.848968 -138.975785 172.588307 93.310991 -0.000000 -0.000039 0.000006 61.293366 -2.619812 -0.784228 -0.000002 -0.000013 3.000001 -5.000229 7.999004 -0.000113 -1.713303 -179.987998 -1.837949 -179.999991 0.000005 -1.004006 174.026526 -0.768798 -0.435453 -0.000004 0.000005 0.033186 68.422096 6.881663 2.178493 25.870948 -7.355619 0.544393 -3.200353 177.526848 2.879883 -0.000005 -0.000004 -1.027740 -8.533796 2.098488 0.493747 -0.000002 0.000001 -0.135651 70.102719 -6.859512 -2.139176 25.459376 7.355621 -0.003792 
49.956703 -13.860420 100.529991 0.693838 0.316943 2.935232 -3.039258 0.145683 -0.113397 -2.076636 0.286266 -0.220413 -0.431543 0.283595 -0.223822 17.393960 -1.318999 0.831949 3.293011 9.760649 -0.532905 -12.671051 -19.552308 -12.751103 -144.085682 -167.201528 -96.145151 -0.000001 -0.000005 0.000000 69.403704 0.486717 3.479447 0.000002 0.000003 -2.999999 -5.000182 -7.999010 0.000154 -13.244240 22.244794 13.819519 -139.033336 172.707863 93.248365 -0.000000 -0.000040 0.000008 61.580986 -2.600803 -0.821680 -0.000001 -0.000011 3.000001 -5.000234 7.999001 -0.000112 -1.710841 -179.986017 -1.835318 -179.999991 0.000005 -1.004006 174.025283 -0.771785 -0.435783 -0.000003 0.000005 0.033162 68.423572 6.881699 2.178508 25.872977 -7.355619 0.542542 -3.188118 177.526834 2.876925 -0.000005 -0.000004 -1.027900 -8.530869 2.101134 0.493624 -0.000002 0.000001 -0.135690 70.102179 -6.859464 -2.139300 25.459378 7.355620 -0.003802 
49.959904 -13.857620 100.528999 0.691408 0.314890 2.911661 -3.040381 0.146023 -0.115034 -2.078926 0.287353 -0.223347 -0.433833 0.284646 -0.226765 17.425491 -1.279918 0.825954 3.266029 9.716602 -0.529891 -12.657433 -19.466736 -12.723400 -144.030070 -167.314568 -96.115255 -0.000001 -0.000004 0.000000 69.567136 0.490233 3.520813 -0.000000 -0.000000 -2.999999 -5.000180 -7.999011 0.000153 -13.223110 22.250658 13.788278 -139.096160 172.824468 93.196190 -0.000002 -0.000040 0.000008 61.872846 -2.579819 -0.859916 -0.000005 -0.000010 3.000001 -5.000233 7.998998 -0.000113 -1.709043 -179.982998 -1.832077 -179.999991 0.000005 -1.004005 174.023344 -0.774771 -0.436121 -0.000003 0.000005 0.033137 68.425580 6.881697 2.178482 25.874684 -7.355622 0.540643 -3.175256 177.527804 2.874053 -0.000005 -0.000005 -1.028070 -8.526922 2.104192 0.493503 -0.000002 0.000001 -0.135729 70.101209 -6.859440 -2.139255 25.459378 7.355620 -0.003812 
49.955505 -13.865717 100.527992 0.689181 0.312344 2.887543 -3.041503 0.146295 -0.116613 -2.081186 0.288454 -0.226108 -0.436098 0.285716 -0.229534 17.466100 -1.236563 0.819278 3.222804 9.667496 -0.525470 -12.643433 -19.373137 -12.694388 -143.973052 -167.419958 -96.082341 -0.000002 -0.000006 -0.000000 69.704512 0.496050 3.560998 0.000002 0.000004 -3.000000 -5.000183 -7.999007 0.000152 -13.201080 22.259631 13.755773 -139.163206 172.938354 93.152435 -0.000004 -0.000038 0.000008 62.167788 -2.557201 -0.898828 -0.000003 -0.000012 3.000000 -5.000231 7.999004 -0.000112 -1.707765 -179.980020 -1.828306 -179.999991 0.000005 -1.004005 174.020871 -0.777743 -0.435469 -0.000003 0.000005 0.033113 68.427813 6.881751 2.178555 25.876404 -7.355616 0.538731 -3.161852 177.529758 2.871255 -0.000005 -0.000004 -1.028240 -8.522067 2.107591 0.493381 -0.000002 0.000001 -0.135767 70.099837 -6.859438 -2.139240 25.459375 7.355621 -0.003823 
